HIERARCHY
ROOT Hips
{
	OFFSET 0.000000 0.000000 0.000000
	CHANNELS 6 Xposition Yposition Zposition Xrotation Yrotation Zrotation
	JOINT LeftUpLeg_virtual
	{
		OFFSET 0.000000 0.000000 0.000000
		CHANNELS 3 Xrotation Yrotation Zrotation
		JOINT LeftUpLeg
		{
			OFFSET 15.427100 -6.655098 0.678600
			CHANNELS 3 Xrotation Yrotation Zrotation
			JOINT LeftLeg
			{
				OFFSET 4.081073 -39.591068 13.024000
				CHANNELS 3 Xrotation Yrotation Zrotation
				JOINT LeftFoot
				{
					OFFSET -4.081074 -37.707932 -15.979700
					CHANNELS 3 Xrotation Yrotation Zrotation
					JOINT LeftToeBase
					{
						OFFSET 5.346399 -15.068900 20.645000
						CHANNELS 3 Xrotation Yrotation Zrotation
						JOINT LeftToe_End
						{
							OFFSET 2.754700 0.931300 11.300900
							CHANNELS 3 Xrotation Yrotation Zrotation
							End Site
							{
								OFFSET 0 0 0
							}
						}
					}
				}
			}
		}
	}
	JOINT RightUpLeg_virtual
	{
		OFFSET 0.000000 0.000000 0.000000
		CHANNELS 3 Xrotation Yrotation Zrotation
		JOINT RightUpLeg
		{
			OFFSET -15.569500 -6.655098 0.678600
			CHANNELS 3 Xrotation Yrotation Zrotation
			JOINT RightLeg
			{
				OFFSET -4.081825 -39.591045 13.023800
				CHANNELS 3 Xrotation Yrotation Zrotation
				JOINT RightFoot
				{
					OFFSET 4.081824 -37.707954 -15.979600
					CHANNELS 3 Xrotation Yrotation Zrotation
					JOINT RightToeBase
					{
						OFFSET -5.346400 -15.068900 20.645000
						CHANNELS 3 Xrotation Yrotation Zrotation
						JOINT RightToe_End
						{
							OFFSET -2.754700 0.931300 11.300900
							CHANNELS 3 Xrotation Yrotation Zrotation
							End Site
							{
								OFFSET 0 0 0
							}
						}
					}
				}
			}
		}
	}
	JOINT Spine_virtual
	{
		OFFSET 0.000000 0.000000 0.000000
		CHANNELS 3 Xrotation Yrotation Zrotation
		JOINT Spine
		{
			OFFSET -0.279200 12.230698 -2.892100
			CHANNELS 3 Xrotation Yrotation Zrotation
			JOINT Spine1
			{
				OFFSET -0.232667 10.192268 -1.242267
				CHANNELS 3 Xrotation Yrotation Zrotation
				JOINT Spine1_split
				{
					OFFSET -0.232667 10.192268 -1.242267
					CHANNELS 3 Xrotation Yrotation Zrotation
					JOINT Spine2
					{
						OFFSET -0.232667 10.192268 -1.242267
						CHANNELS 3 Xrotation Yrotation Zrotation
						JOINT Neck_virtual
						{
							OFFSET 0.000000 0.000000 0.000000
							CHANNELS 3 Xrotation Yrotation Zrotation
							JOINT Neck
							{
								OFFSET -0.418800 17.814194 8.416900
								CHANNELS 3 Xrotation Yrotation Zrotation
								JOINT Head
								{
									OFFSET 0.000000 7.031097 3.806800
									CHANNELS 3 Xrotation Yrotation Zrotation
									JOINT HeadTop_End
									{
										OFFSET 0.000000 24.646606 12.978600
										CHANNELS 3 Xrotation Yrotation Zrotation
										End Site
										{
											OFFSET 0 0 0
										}
									}
								}
							}
						}
						JOINT LeftShoulder_virtual
						{
							OFFSET 0.000000 0.000000 0.000000
							CHANNELS 3 Xrotation Yrotation Zrotation
							JOINT LeftShoulder
							{
								OFFSET 8.476499 7.247704 -3.868750
								CHANNELS 3 Xrotation Yrotation Zrotation
								JOINT LeftShoulder_split
								{
									OFFSET 8.476499 7.247704 -3.868750
									CHANNELS 3 Xrotation Yrotation Zrotation
									JOINT LeftArm
									{
										OFFSET 9.308998 -2.777710 0.208600
										CHANNELS 3 Xrotation Yrotation Zrotation
										JOINT LeftForeArm
										{
											OFFSET 29.972298 0.000000 0.000000
											CHANNELS 3 Xrotation Yrotation Zrotation
											JOINT LeftHand
											{
												OFFSET 26.026505 0.000000 0.000000
												CHANNELS 3 Xrotation Yrotation Zrotation
												End Site
												{
													OFFSET 0 0 0
												}
											}
										}
									}
								}
							}
						}
						JOINT RightShoulder_virtual
						{
							OFFSET 0.000000 0.000000 0.000000
							CHANNELS 3 Xrotation Yrotation Zrotation
							JOINT RightShoulder
							{
								OFFSET -7.570500 7.247704 -3.868750
								CHANNELS 3 Xrotation Yrotation Zrotation
								JOINT RightShoulder_split
								{
									OFFSET -7.570500 7.247704 -3.868750
									CHANNELS 3 Xrotation Yrotation Zrotation
									JOINT RightArm
									{
										OFFSET -9.308998 -2.777710 0.208500
										CHANNELS 3 Xrotation Yrotation Zrotation
										JOINT RightForeArm
										{
											OFFSET -29.972300 0.000000 0.000000
											CHANNELS 3 Xrotation Yrotation Zrotation
											JOINT RightHand
											{
												OFFSET -26.026505 0.000000 0.000000
												CHANNELS 3 Xrotation Yrotation Zrotation
												End Site
												{
													OFFSET 0 0 0
												}
											}
										}
									}
								}
							}
						}
					}
				}
			}
		}
	}
}
MOTION
Frames: 7
Frame Time: 0.03333333
17.515669 16.873589 -31.048834 0.000000 0.000000 0.000000 83.784360 1.496232 -0.008270 -2.634659 -2.780803 34.230009 37.470097 -2.704696 -19.947825 32.331305 63.240489 -34.160863 1.379585 -8.343809 -5.676608 0.000000 0.000000 0.000000 83.712130 -2.676593 -0.465922 -37.068956 -41.340932 -46.879058 35.665462 26.444693 -3.827492 38.808281 -52.541756 36.698347 31.500976 14.452202 7.978931 0.000000 0.000000 0.000000 91.330407 0.441412 -1.421484 17.204458 -0.120578 -1.610237 -10.057237 -2.516670 0.202387 -0.035012 0.477024 0.056516 0.000000 0.000000 0.000000 -5.941979 -0.901204 1.203237 -5.448701 0.387548 10.796878 -26.512978 -21.725857 2.427010 0.000000 0.000000 0.000000 -11.269989 -0.862080 -0.455815 -1.449811 -9.675814 4.977537 3.065454 1.381565 -5.204931 24.254219 -32.315029 -59.316300 -11.796824 -33.759361 -7.354714 0.000000 0.000000 0.000000 -7.822225 -1.849647 0.176494 7.034635 1.778505 3.317415 -22.681559 2.060348 4.169190 13.732010 15.263735 53.347995 -24.632592 17.784440 20.971169 0.000000 0.000000 0.000000 
17.515375 16.873878 -31.051554 0.000000 0.000000 0.000000 83.781102 1.497501 0.000356 -2.630548 -2.788008 34.226594 37.472641 -2.700780 -19.949738 32.349190 63.239267 -34.171628 1.386209 -8.342642 -5.680966 0.000000 0.000000 0.000000 83.700184 -2.674317 -0.464077 -37.063707 -41.342356 -46.882907 35.676957 26.442656 -3.828958 38.807482 -52.538522 36.702841 31.513987 14.454046 7.975261 0.000000 0.000000 0.000000 91.324192 0.449755 -1.420084 17.206689 -0.119007 -1.611766 -10.056929 -2.513497 0.200992 -0.034317 0.476227 0.056703 0.000000 0.000000 0.000000 -5.941457 -0.899171 1.201796 -5.449353 0.389524 10.802667 -26.504312 -21.719525 2.427300 0.000000 0.000000 0.000000 -11.267755 -0.859680 -0.458902 -1.447366 -9.689767 4.982033 3.059806 1.391966 -5.173574 24.256696 -32.308646 -59.315699 -11.801174 -33.738170 -7.353776 0.000000 0.000000 0.000000 -7.821591 -1.847228 0.176422 7.029020 1.769577 3.315395 -22.683502 2.047931 4.164596 13.705984 15.217171 53.387190 -24.644391 17.764871 20.982990 0.000000 0.000000 0.000000 
17.515608 16.876831 -31.056475 0.000000 0.000000 0.000000 83.773035 1.499836 0.006757 -2.626957 -2.793707 34.220959 37.476182 -2.689778 -19.945860 32.370708 63.240879 -34.178864 1.389522 -8.340658 -5.687914 0.000000 0.000000 0.000000 83.689290 -2.674251 -0.462205 -37.043903 -41.356884 -46.879007 35.680061 26.428437 -3.828971 38.792302 -52.546332 36.698326 31.535697 14.460202 7.967739 0.000000 0.000000 0.000000 91.314677 0.459459 -1.419982 17.212186 -0.114931 -1.613756 -10.057245 -2.509379 0.199806 -0.034017 0.476147 0.056958 0.000000 0.000000 0.000000 -5.941434 -0.895807 1.200120 -5.459245 0.388525 10.816768 -26.499548 -21.706565 2.420277 0.000000 0.000000 0.000000 -11.267060 -0.856051 -0.461296 -1.443946 -9.718648 4.990388 3.061137 1.394927 -5.151925 24.247655 -32.309424 -59.315617 -11.801562 -33.677511 -7.348986 0.000000 0.000000 0.000000 -7.821650 -1.844154 0.176790 7.014000 1.741863 3.315877 -22.691488 2.032655 4.169258 13.667853 15.151567 53.419794 -24.661969 17.714615 21.009517 0.000000 0.000000 0.000000 
17.515495 16.881504 -31.063677 0.000000 0.000000 0.000000 83.761342 1.504779 0.010172 -2.628597 -2.799696 34.215146 37.482210 -2.677702 -19.936747 32.393429 63.240476 -34.187098 1.395164 -8.338190 -5.696808 0.000000 0.000000 0.000000 83.677296 -2.674768 -0.458601 -37.019031 -41.378410 -46.875322 35.677708 26.407528 -3.828885 38.773819 -52.555256 36.697165 31.561908 14.469476 7.957374 0.000000 0.000000 0.000000 91.302451 0.468164 -1.420322 17.221704 -0.109379 -1.615775 -10.057045 -2.504321 0.198700 -0.034877 0.476490 0.057471 0.000000 0.000000 0.000000 -5.941731 -0.891123 1.197966 -5.477950 0.385706 10.836922 -26.511186 -21.687471 2.402766 0.000000 0.000000 0.000000 -11.266649 -0.851398 -0.462946 -1.439930 -9.758741 5.003379 3.063046 1.391539 -5.151905 24.227033 -32.318560 -59.313943 -11.798301 -33.581339 -7.340412 0.000000 0.000000 0.000000 -7.821263 -1.840200 0.177411 6.990929 1.699829 3.313863 -22.701903 2.026715 4.191402 13.621732 15.079734 53.432662 -24.685152 17.652952 21.049661 0.000000 0.000000 0.000000 
17.515568 16.887444 -31.070528 0.000000 0.000000 0.000000 83.745687 1.512712 0.009166 -2.634954 -2.808299 34.207531 37.490854 -2.665644 -19.923517 32.410928 63.237334 -34.190001 1.399952 -8.335679 -5.705506 0.000000 0.000000 0.000000 83.664476 -2.671048 -0.455240 -36.993124 -41.400734 -46.876077 35.676633 26.390540 -3.829859 38.761306 -52.553320 36.708148 31.580507 14.479943 7.948908 0.000000 0.000000 0.000000 91.287739 0.477334 -1.424037 17.234821 -0.104117 -1.617126 -10.054883 -2.498440 0.197590 -0.036280 0.475963 0.056624 0.000000 0.000000 0.000000 -5.940271 -0.885518 1.195765 -5.503928 0.383653 10.860684 -26.550491 -21.661603 2.371664 0.000000 0.000000 0.000000 -11.265773 -0.845866 -0.463917 -1.436487 -9.806144 5.022084 3.065626 1.389728 -5.177645 24.190162 -32.336257 -59.312509 -11.790326 -33.456080 -7.326698 0.000000 0.000000 0.000000 -7.818732 -1.835338 0.177388 6.961931 1.651145 3.304653 -22.707473 2.018071 4.220025 13.573070 15.007992 53.418363 -24.710226 17.591171 21.096245 0.000000 0.000000 0.000000 
17.515472 16.894444 -31.077299 0.000000 0.000000 0.000000 83.727983 1.523406 0.005602 -2.646323 -2.823723 34.198887 37.504565 -2.656424 -19.907271 32.431702 63.228523 -34.194734 1.398683 -8.332752 -5.711814 0.000000 0.000000 0.000000 83.649935 -2.662991 -0.452355 -36.970100 -41.420135 -46.883419 35.681489 26.379012 -3.831302 38.764527 -52.537139 36.733375 31.593723 14.490226 7.947006 0.000000 0.000000 0.000000 91.272118 0.487283 -1.431298 17.250806 -0.101298 -1.617876 -10.049263 -2.491921 0.196460 -0.037044 0.475307 0.056289 0.000000 0.000000 0.000000 -5.935093 -0.879309 1.193753 -5.533562 0.384695 10.885162 -26.620766 -21.627577 2.330479 0.000000 0.000000 0.000000 -11.262835 -0.839919 -0.464311 -1.435276 -9.855347 5.045696 3.070840 1.408330 -5.226795 24.136857 -32.358861 -59.312652 -11.780667 -33.314241 -7.308890 0.000000 0.000000 0.000000 -7.812817 -1.829708 0.176374 6.930444 1.604464 3.286334 -22.719282 2.003946 4.253094 13.524108 14.940277 53.373584 -24.731968 17.533613 21.139282 0.000000 0.000000 0.000000 
17.517406 16.901798 -31.081900 0.000000 0.000000 0.000000 83.707807 1.534831 0.002570 -2.661026 -2.848363 34.188013 37.525257 -2.647891 -19.888230 32.460409 63.217267 -34.202869 1.392103 -8.328926 -5.713018 0.000000 0.000000 0.000000 83.629792 -2.654376 -0.449426 -36.956299 -41.437644 -46.898575 35.693534 26.367064 -3.831336 38.789208 -52.512113 36.771047 31.621256 14.499827 7.955533 0.000000 0.000000 0.000000 91.254558 0.500394 -1.441468 17.267009 -0.104717 -1.618745 -10.040790 -2.485128 0.195724 -0.036695 0.475406 0.056108 0.000000 0.000000 0.000000 -5.925887 -0.872813 1.192826 -5.561782 0.391285 10.907503 -26.715429 -21.594468 2.286523 0.000000 0.000000 0.000000 -11.257887 -0.833729 -0.464942 -1.437688 -9.901500 5.072046 3.074486 1.452086 -5.289416 24.078189 -32.374875 -59.318847 -11.774749 -33.172511 -7.290263 0.000000 0.000000 0.000000 -7.802767 -1.823055 0.174649 6.901481 1.569010 3.262649 -22.751679 1.974201 4.285987 13.471732 14.876816 53.303025 -24.748658 17.475170 21.173583 0.000000 0.000000 0.000000 
